<mxfile host="app.diagrams.net" modified="2023-04-21T05:31:09.641Z" agent="Mozilla/5.0 (Windows NT 10.0; Win64; x64) AppleWebKit/537.36 (KHTML, like Gecko) Chrome/112.0.0.0 Safari/537.36" etag="cqrPLZwEfqg4W8ZOEF_h" version="21.2.1" type="device">
  <diagram name="페이지-1" id="n-NQtG3gxLDfYUmgUVUH">
    <mxGraphModel dx="1590" dy="4140" grid="1" gridSize="10" guides="1" tooltips="1" connect="1" arrows="1" fold="1" page="1" pageScale="1" pageWidth="4681" pageHeight="3300" math="0" shadow="0">
      <root>
        <mxCell id="0" />
        <mxCell id="1" parent="0" />
        <mxCell id="vPWHB3jI7QdFX1luLAzf-9" value="" style="rounded=0;orthogonalLoop=1;jettySize=auto;html=1;entryX=0.613;entryY=-0.067;entryDx=0;entryDy=0;entryPerimeter=0;exitX=0.5;exitY=1;exitDx=0;exitDy=0;" edge="1" parent="1" source="vPWHB3jI7QdFX1luLAzf-1" target="vPWHB3jI7QdFX1luLAzf-3">
          <mxGeometry relative="1" as="geometry" />
        </mxCell>
        <mxCell id="vPWHB3jI7QdFX1luLAzf-36" style="rounded=0;orthogonalLoop=1;jettySize=auto;html=1;" edge="1" parent="1" target="vPWHB3jI7QdFX1luLAzf-34">
          <mxGeometry relative="1" as="geometry">
            <mxPoint x="1180" y="50" as="sourcePoint" />
            <Array as="points">
              <mxPoint x="860" y="-10" />
            </Array>
          </mxGeometry>
        </mxCell>
        <mxCell id="vPWHB3jI7QdFX1luLAzf-1" value="과목" style="whiteSpace=wrap;html=1;align=center;" vertex="1" parent="1">
          <mxGeometry x="1130" y="50" width="120" height="40" as="geometry" />
        </mxCell>
        <mxCell id="vPWHB3jI7QdFX1luLAzf-2" value="과목명" style="ellipse;whiteSpace=wrap;html=1;align=center;" vertex="1" parent="1">
          <mxGeometry x="1010" y="250" width="100" height="40" as="geometry" />
        </mxCell>
        <mxCell id="vPWHB3jI7QdFX1luLAzf-3" value="과목코드" style="ellipse;whiteSpace=wrap;html=1;align=center;fontStyle=4;" vertex="1" parent="1">
          <mxGeometry x="850" y="250" width="100" height="40" as="geometry" />
        </mxCell>
        <mxCell id="vPWHB3jI7QdFX1luLAzf-4" value="담당교수" style="ellipse;whiteSpace=wrap;html=1;align=center;" vertex="1" parent="1">
          <mxGeometry x="1130" y="250" width="100" height="40" as="geometry" />
        </mxCell>
        <mxCell id="vPWHB3jI7QdFX1luLAzf-5" value="강의실" style="ellipse;whiteSpace=wrap;html=1;align=center;" vertex="1" parent="1">
          <mxGeometry x="1280" y="250" width="100" height="40" as="geometry" />
        </mxCell>
        <mxCell id="vPWHB3jI7QdFX1luLAzf-7" value="연락처" style="ellipse;whiteSpace=wrap;html=1;align=center;" vertex="1" parent="1">
          <mxGeometry x="1400" y="250" width="100" height="40" as="geometry" />
        </mxCell>
        <mxCell id="vPWHB3jI7QdFX1luLAzf-8" value="조교" style="ellipse;whiteSpace=wrap;html=1;align=center;" vertex="1" parent="1">
          <mxGeometry x="1520" y="250" width="100" height="40" as="geometry" />
        </mxCell>
        <mxCell id="vPWHB3jI7QdFX1luLAzf-12" value="" style="rounded=0;orthogonalLoop=1;jettySize=auto;html=1;entryX=0.5;entryY=0;entryDx=0;entryDy=0;exitX=0.5;exitY=1;exitDx=0;exitDy=0;" edge="1" parent="1" source="vPWHB3jI7QdFX1luLAzf-1" target="vPWHB3jI7QdFX1luLAzf-2">
          <mxGeometry relative="1" as="geometry">
            <mxPoint x="1199" y="93" as="sourcePoint" />
            <mxPoint x="980" y="170" as="targetPoint" />
          </mxGeometry>
        </mxCell>
        <mxCell id="vPWHB3jI7QdFX1luLAzf-15" value="" style="rounded=0;orthogonalLoop=1;jettySize=auto;html=1;entryX=0.5;entryY=0;entryDx=0;entryDy=0;" edge="1" parent="1" target="vPWHB3jI7QdFX1luLAzf-5">
          <mxGeometry relative="1" as="geometry">
            <mxPoint x="1190" y="90" as="sourcePoint" />
            <mxPoint x="1180" y="180" as="targetPoint" />
          </mxGeometry>
        </mxCell>
        <mxCell id="vPWHB3jI7QdFX1luLAzf-16" value="" style="rounded=0;orthogonalLoop=1;jettySize=auto;html=1;exitX=0.589;exitY=1.033;exitDx=0;exitDy=0;exitPerimeter=0;" edge="1" parent="1">
          <mxGeometry relative="1" as="geometry">
            <mxPoint x="1190.68" y="90.00000000000006" as="sourcePoint" />
            <mxPoint x="1440" y="240" as="targetPoint" />
          </mxGeometry>
        </mxCell>
        <mxCell id="vPWHB3jI7QdFX1luLAzf-17" value="" style="rounded=0;orthogonalLoop=1;jettySize=auto;html=1;" edge="1" parent="1">
          <mxGeometry relative="1" as="geometry">
            <mxPoint x="1210" y="90" as="sourcePoint" />
            <mxPoint x="1560" y="240" as="targetPoint" />
            <Array as="points">
              <mxPoint x="1200" y="90" />
            </Array>
          </mxGeometry>
        </mxCell>
        <mxCell id="vPWHB3jI7QdFX1luLAzf-19" value="" style="rounded=0;orthogonalLoop=1;jettySize=auto;html=1;" edge="1" parent="1">
          <mxGeometry relative="1" as="geometry">
            <mxPoint x="1190" y="90" as="sourcePoint" />
            <mxPoint x="1180" y="240" as="targetPoint" />
          </mxGeometry>
        </mxCell>
        <mxCell id="vPWHB3jI7QdFX1luLAzf-21" value="" style="rounded=0;orthogonalLoop=1;jettySize=auto;html=1;entryX=0.613;entryY=-0.067;entryDx=0;entryDy=0;entryPerimeter=0;exitX=0.5;exitY=1;exitDx=0;exitDy=0;" edge="1" source="vPWHB3jI7QdFX1luLAzf-22" target="vPWHB3jI7QdFX1luLAzf-24" parent="1">
          <mxGeometry relative="1" as="geometry" />
        </mxCell>
        <mxCell id="vPWHB3jI7QdFX1luLAzf-35" value="" style="rounded=0;orthogonalLoop=1;jettySize=auto;html=1;" edge="1" parent="1" source="vPWHB3jI7QdFX1luLAzf-22" target="vPWHB3jI7QdFX1luLAzf-34">
          <mxGeometry relative="1" as="geometry">
            <Array as="points">
              <mxPoint x="460" y="50" />
            </Array>
          </mxGeometry>
        </mxCell>
        <mxCell id="vPWHB3jI7QdFX1luLAzf-22" value="학생" style="whiteSpace=wrap;html=1;align=center;" vertex="1" parent="1">
          <mxGeometry x="340" y="50" width="120" height="40" as="geometry" />
        </mxCell>
        <mxCell id="vPWHB3jI7QdFX1luLAzf-23" value="이름" style="ellipse;whiteSpace=wrap;html=1;align=center;" vertex="1" parent="1">
          <mxGeometry x="220" y="250" width="100" height="40" as="geometry" />
        </mxCell>
        <mxCell id="vPWHB3jI7QdFX1luLAzf-24" value="학번" style="ellipse;whiteSpace=wrap;html=1;align=center;fontStyle=4;" vertex="1" parent="1">
          <mxGeometry x="60" y="250" width="100" height="40" as="geometry" />
        </mxCell>
        <mxCell id="vPWHB3jI7QdFX1luLAzf-25" value="학과" style="ellipse;whiteSpace=wrap;html=1;align=center;" vertex="1" parent="1">
          <mxGeometry x="340" y="250" width="100" height="40" as="geometry" />
        </mxCell>
        <mxCell id="vPWHB3jI7QdFX1luLAzf-26" value="학년" style="ellipse;whiteSpace=wrap;html=1;align=center;" vertex="1" parent="1">
          <mxGeometry x="490" y="250" width="100" height="40" as="geometry" />
        </mxCell>
        <mxCell id="vPWHB3jI7QdFX1luLAzf-27" value="전화번호" style="ellipse;whiteSpace=wrap;html=1;align=center;" vertex="1" parent="1">
          <mxGeometry x="610" y="250" width="100" height="40" as="geometry" />
        </mxCell>
        <mxCell id="vPWHB3jI7QdFX1luLAzf-28" value="주소" style="ellipse;whiteSpace=wrap;html=1;align=center;" vertex="1" parent="1">
          <mxGeometry x="730" y="250" width="100" height="40" as="geometry" />
        </mxCell>
        <mxCell id="vPWHB3jI7QdFX1luLAzf-29" value="" style="rounded=0;orthogonalLoop=1;jettySize=auto;html=1;entryX=0.5;entryY=0;entryDx=0;entryDy=0;exitX=0.5;exitY=1;exitDx=0;exitDy=0;" edge="1" source="vPWHB3jI7QdFX1luLAzf-22" target="vPWHB3jI7QdFX1luLAzf-23" parent="1">
          <mxGeometry relative="1" as="geometry">
            <mxPoint x="409" y="93" as="sourcePoint" />
            <mxPoint x="190" y="170" as="targetPoint" />
          </mxGeometry>
        </mxCell>
        <mxCell id="vPWHB3jI7QdFX1luLAzf-30" value="" style="rounded=0;orthogonalLoop=1;jettySize=auto;html=1;entryX=0.5;entryY=0;entryDx=0;entryDy=0;" edge="1" target="vPWHB3jI7QdFX1luLAzf-26" parent="1">
          <mxGeometry relative="1" as="geometry">
            <mxPoint x="400" y="90" as="sourcePoint" />
            <mxPoint x="390" y="180" as="targetPoint" />
          </mxGeometry>
        </mxCell>
        <mxCell id="vPWHB3jI7QdFX1luLAzf-31" value="" style="rounded=0;orthogonalLoop=1;jettySize=auto;html=1;exitX=0.589;exitY=1.033;exitDx=0;exitDy=0;exitPerimeter=0;" edge="1" parent="1">
          <mxGeometry relative="1" as="geometry">
            <mxPoint x="400.68000000000006" y="90.00000000000006" as="sourcePoint" />
            <mxPoint x="650" y="240" as="targetPoint" />
          </mxGeometry>
        </mxCell>
        <mxCell id="vPWHB3jI7QdFX1luLAzf-32" value="" style="rounded=0;orthogonalLoop=1;jettySize=auto;html=1;" edge="1" parent="1">
          <mxGeometry relative="1" as="geometry">
            <mxPoint x="420" y="90" as="sourcePoint" />
            <mxPoint x="770" y="240" as="targetPoint" />
            <Array as="points">
              <mxPoint x="410" y="90" />
            </Array>
          </mxGeometry>
        </mxCell>
        <mxCell id="vPWHB3jI7QdFX1luLAzf-33" value="" style="rounded=0;orthogonalLoop=1;jettySize=auto;html=1;" edge="1" parent="1">
          <mxGeometry relative="1" as="geometry">
            <mxPoint x="400" y="90" as="sourcePoint" />
            <mxPoint x="390" y="240" as="targetPoint" />
          </mxGeometry>
        </mxCell>
        <mxCell id="vPWHB3jI7QdFX1luLAzf-34" value="수강신청" style="rhombus;whiteSpace=wrap;html=1;" vertex="1" parent="1">
          <mxGeometry x="710" y="-70" width="150" height="80" as="geometry" />
        </mxCell>
        <mxCell id="vPWHB3jI7QdFX1luLAzf-37" style="edgeStyle=orthogonalEdgeStyle;rounded=0;orthogonalLoop=1;jettySize=auto;html=1;exitX=0.5;exitY=1;exitDx=0;exitDy=0;entryX=0.589;entryY=0.972;entryDx=0;entryDy=0;entryPerimeter=0;" edge="1" parent="1" source="vPWHB3jI7QdFX1luLAzf-27" target="vPWHB3jI7QdFX1luLAzf-27">
          <mxGeometry relative="1" as="geometry" />
        </mxCell>
      </root>
    </mxGraphModel>
  </diagram>
</mxfile>
